<?xml version="1.0" encoding="utf-8"?>
<xmeml version="4">
  <!-- Exported by Descript -->
  <sequence id="DF Negative">
    <duration>2834</duration>
    <name>DF Negative</name>
    <width>1280</width>
    <height>720</height>
    <rate>
      <timebase>30</timebase>
      <ntsc>FALSE</ntsc>
    </rate>
    <media>
      <video>
        <format>
          <samplecharacteristics>
            <pixelaspectratio>square</pixelaspectratio>
            <anamorphic>FALSE</anamorphic>
            <fielddominance>none</fielddominance>
            <colordepth>24</colordepth>
            <width>1280</width>
            <height>720</height>
            <rate>
              <timebase>30</timebase>
              <ntsc>FALSE</ntsc>
            </rate>
          </samplecharacteristics>
        </format>
      </video>
      <audio>
        <numOutputChannels>2</numOutputChannels>
        <format>
          <samplecharacteristics>
            <depth>16</depth>
            <samplerate>44100</samplerate>
          </samplecharacteristics>
        </format>
        <outputs>
          <group>
            <index>1</index>
            <numchannels>1</numchannels>
            <downmix>0</downmix>
            <channel>
              <index>1</index>
            </channel>
          </group>
          <group>
            <index>2</index>
            <numchannels>1</numchannels>
            <downmix>0</downmix>
            <channel>
              <index>2</index>
            </channel>
          </group>
        </outputs>
        <track>
          <clipitem id="clipitem-1">
            <name>overdub_3a9cca1f-90f6-4ec0-96d1-89260123fc8b.wav</name>
            <enabled>TRUE</enabled>
            <duration>71</duration>
            <start>0</start>
            <end>71</end>
            <in>0</in>
            <out>71</out>
            <file id="file-1">
              <name>overdub_3a9cca1f-90f6-4ec0-96d1-89260123fc8b.wav</name>
              <pathurl>overdub_3a9cca1f-90f6-4ec0-96d1-89260123fc8b.wav</pathurl>
              <duration>71</duration>
              <width>1280</width>
              <height>720</height>
              <rate>
                <timebase>30</timebase>
                <ntsc>FALSE</ntsc>
              </rate>
              <media>
                <audio>
                  <samplecharacteristics>
                    <depth>16</depth>
                    <samplerate>44100</samplerate>
                  </samplecharacteristics>
                  <channelcount>1</channelcount>
                </audio>
              </media>
            </file>
            <link>
              <linkclipref>clipitem-1</linkclipref>
              <mediatype>audio</mediatype>
              <trackindex>1</trackindex>
              <clipindex>1</clipindex>
              <groupindex>1</groupindex>
            </link>
          </clipitem>
          <clipitem id="clipitem-2">
            <name>overdub_b42beb96-1fd2-4815-9314-f7ef2738c195.wav</name>
            <enabled>TRUE</enabled>
            <duration>118</duration>
            <start>71</start>
            <end>189</end>
            <in>0</in>
            <out>118</out>
            <file id="file-2">
              <name>overdub_b42beb96-1fd2-4815-9314-f7ef2738c195.wav</name>
              <pathurl>overdub_b42beb96-1fd2-4815-9314-f7ef2738c195.wav</pathurl>
              <duration>118</duration>
              <width>1280</width>
              <height>720</height>
              <rate>
                <timebase>30</timebase>
                <ntsc>FALSE</ntsc>
              </rate>
              <media>
                <audio>
                  <samplecharacteristics>
                    <depth>16</depth>
                    <samplerate>44100</samplerate>
                  </samplecharacteristics>
                  <channelcount>1</channelcount>
                </audio>
              </media>
            </file>
            <link>
              <linkclipref>clipitem-2</linkclipref>
              <mediatype>audio</mediatype>
              <trackindex>1</trackindex>
              <clipindex>2</clipindex>
              <groupindex>1</groupindex>
            </link>
          </clipitem>
          <clipitem id="clipitem-3">
            <name>overdub_8ec5a181-7f43-4cc3-bd1d-b8877b69dd3b.wav</name>
            <enabled>TRUE</enabled>
            <duration>80</duration>
            <start>189</start>
            <end>270</end>
            <in>0</in>
            <out>80</out>
            <file id="file-3">
              <name>overdub_8ec5a181-7f43-4cc3-bd1d-b8877b69dd3b.wav</name>
              <pathurl>overdub_8ec5a181-7f43-4cc3-bd1d-b8877b69dd3b.wav</pathurl>
              <duration>80</duration>
              <width>1280</width>
              <height>720</height>
              <rate>
                <timebase>30</timebase>
                <ntsc>FALSE</ntsc>
              </rate>
              <media>
                <audio>
                  <samplecharacteristics>
                    <depth>16</depth>
                    <samplerate>44100</samplerate>
                  </samplecharacteristics>
                  <channelcount>1</channelcount>
                </audio>
              </media>
            </file>
            <link>
              <linkclipref>clipitem-3</linkclipref>
              <mediatype>audio</mediatype>
              <trackindex>1</trackindex>
              <clipindex>3</clipindex>
              <groupindex>1</groupindex>
            </link>
          </clipitem>
          <clipitem id="clipitem-4">
            <name>overdub_1d370b1f-cdda-4427-8b8b-ed1cbacb94c5.wav</name>
            <enabled>TRUE</enabled>
            <duration>61</duration>
            <start>270</start>
            <end>331</end>
            <in>0</in>
            <out>61</out>
            <file id="file-4">
              <name>overdub_1d370b1f-cdda-4427-8b8b-ed1cbacb94c5.wav</name>
              <pathurl>overdub_1d370b1f-cdda-4427-8b8b-ed1cbacb94c5.wav</pathurl>
              <duration>61</duration>
              <width>1280</width>
              <height>720</height>
              <rate>
                <timebase>30</timebase>
                <ntsc>FALSE</ntsc>
              </rate>
              <media>
                <audio>
                  <samplecharacteristics>
                    <depth>16</depth>
                    <samplerate>44100</samplerate>
                  </samplecharacteristics>
                  <channelcount>1</channelcount>
                </audio>
              </media>
            </file>
            <link>
              <linkclipref>clipitem-4</linkclipref>
              <mediatype>audio</mediatype>
              <trackindex>1</trackindex>
              <clipindex>4</clipindex>
              <groupindex>1</groupindex>
            </link>
          </clipitem>
          <clipitem id="clipitem-5">
            <name>overdub_20f9dc1c-9f16-4f91-8f92-0d6910e70cbd.wav</name>
            <enabled>TRUE</enabled>
            <duration>167</duration>
            <start>331</start>
            <end>498</end>
            <in>0</in>
            <out>167</out>
            <file id="file-5">
              <name>overdub_20f9dc1c-9f16-4f91-8f92-0d6910e70cbd.wav</name>
              <pathurl>overdub_20f9dc1c-9f16-4f91-8f92-0d6910e70cbd.wav</pathurl>
              <duration>167</duration>
              <width>1280</width>
              <height>720</height>
              <rate>
                <timebase>30</timebase>
                <ntsc>FALSE</ntsc>
              </rate>
              <media>
                <audio>
                  <samplecharacteristics>
                    <depth>16</depth>
                    <samplerate>44100</samplerate>
                  </samplecharacteristics>
                  <channelcount>1</channelcount>
                </audio>
              </media>
            </file>
            <link>
              <linkclipref>clipitem-5</linkclipref>
              <mediatype>audio</mediatype>
              <trackindex>1</trackindex>
              <clipindex>5</clipindex>
              <groupindex>1</groupindex>
            </link>
          </clipitem>
          <clipitem id="clipitem-6">
            <name>overdub_2495dce7-c614-493e-b077-741207a32a23.wav</name>
            <enabled>TRUE</enabled>
            <duration>43</duration>
            <start>498</start>
            <end>542</end>
            <in>0</in>
            <out>43</out>
            <file id="file-6">
              <name>overdub_2495dce7-c614-493e-b077-741207a32a23.wav</name>
              <pathurl>overdub_2495dce7-c614-493e-b077-741207a32a23.wav</pathurl>
              <duration>43</duration>
              <width>1280</width>
              <height>720</height>
              <rate>
                <timebase>30</timebase>
                <ntsc>FALSE</ntsc>
              </rate>
              <media>
                <audio>
                  <samplecharacteristics>
                    <depth>16</depth>
                    <samplerate>44100</samplerate>
                  </samplecharacteristics>
                  <channelcount>1</channelcount>
                </audio>
              </media>
            </file>
            <link>
              <linkclipref>clipitem-6</linkclipref>
              <mediatype>audio</mediatype>
              <trackindex>1</trackindex>
              <clipindex>6</clipindex>
              <groupindex>1</groupindex>
            </link>
          </clipitem>
          <clipitem id="clipitem-7">
            <name>overdub_b210dc3d-997c-49a5-b79d-4b9bd039e702.wav</name>
            <enabled>TRUE</enabled>
            <duration>90</duration>
            <start>542</start>
            <end>632</end>
            <in>0</in>
            <out>90</out>
            <file id="file-7">
              <name>overdub_b210dc3d-997c-49a5-b79d-4b9bd039e702.wav</name>
              <pathurl>overdub_b210dc3d-997c-49a5-b79d-4b9bd039e702.wav</pathurl>
              <duration>90</duration>
              <width>1280</width>
              <height>720</height>
              <rate>
                <timebase>30</timebase>
                <ntsc>FALSE</ntsc>
              </rate>
              <media>
                <audio>
                  <samplecharacteristics>
                    <depth>16</depth>
                    <samplerate>44100</samplerate>
                  </samplecharacteristics>
                  <channelcount>1</channelcount>
                </audio>
              </media>
            </file>
            <link>
              <linkclipref>clipitem-7</linkclipref>
              <mediatype>audio</mediatype>
              <trackindex>1</trackindex>
              <clipindex>7</clipindex>
              <groupindex>1</groupindex>
            </link>
          </clipitem>
          <clipitem id="clipitem-8">
            <name>overdub_5c28140b-04e9-4351-a47b-c8a13b5b75b0.wav</name>
            <enabled>TRUE</enabled>
            <duration>43</duration>
            <start>632</start>
            <end>676</end>
            <in>0</in>
            <out>43</out>
            <file id="file-8">
              <name>overdub_5c28140b-04e9-4351-a47b-c8a13b5b75b0.wav</name>
              <pathurl>overdub_5c28140b-04e9-4351-a47b-c8a13b5b75b0.wav</pathurl>
              <duration>43</duration>
              <width>1280</width>
              <height>720</height>
              <rate>
                <timebase>30</timebase>
                <ntsc>FALSE</ntsc>
              </rate>
              <media>
                <audio>
                  <samplecharacteristics>
                    <depth>16</depth>
                    <samplerate>44100</samplerate>
                  </samplecharacteristics>
                  <channelcount>1</channelcount>
                </audio>
              </media>
            </file>
            <link>
              <linkclipref>clipitem-8</linkclipref>
              <mediatype>audio</mediatype>
              <trackindex>1</trackindex>
              <clipindex>8</clipindex>
              <groupindex>1</groupindex>
            </link>
          </clipitem>
          <clipitem id="clipitem-9">
            <name>overdub_41432df2-b93f-4f28-a839-b46d8db47ec9.wav</name>
            <enabled>TRUE</enabled>
            <duration>40</duration>
            <start>676</start>
            <end>717</end>
            <in>0</in>
            <out>40</out>
            <file id="file-9">
              <name>overdub_41432df2-b93f-4f28-a839-b46d8db47ec9.wav</name>
              <pathurl>overdub_41432df2-b93f-4f28-a839-b46d8db47ec9.wav</pathurl>
              <duration>40</duration>
              <width>1280</width>
              <height>720</height>
              <rate>
                <timebase>30</timebase>
                <ntsc>FALSE</ntsc>
              </rate>
              <media>
                <audio>
                  <samplecharacteristics>
                    <depth>16</depth>
                    <samplerate>44100</samplerate>
                  </samplecharacteristics>
                  <channelcount>1</channelcount>
                </audio>
              </media>
            </file>
            <link>
              <linkclipref>clipitem-9</linkclipref>
              <mediatype>audio</mediatype>
              <trackindex>1</trackindex>
              <clipindex>9</clipindex>
              <groupindex>1</groupindex>
            </link>
          </clipitem>
          <clipitem id="clipitem-10">
            <name>overdub_8a952244-73fc-4d52-892f-1137b07abbab.wav</name>
            <enabled>TRUE</enabled>
            <duration>92</duration>
            <start>717</start>
            <end>809</end>
            <in>0</in>
            <out>92</out>
            <file id="file-10">
              <name>overdub_8a952244-73fc-4d52-892f-1137b07abbab.wav</name>
              <pathurl>overdub_8a952244-73fc-4d52-892f-1137b07abbab.wav</pathurl>
              <duration>92</duration>
              <width>1280</width>
              <height>720</height>
              <rate>
                <timebase>30</timebase>
                <ntsc>FALSE</ntsc>
              </rate>
              <media>
                <audio>
                  <samplecharacteristics>
                    <depth>16</depth>
                    <samplerate>44100</samplerate>
                  </samplecharacteristics>
                  <channelcount>1</channelcount>
                </audio>
              </media>
            </file>
            <link>
              <linkclipref>clipitem-10</linkclipref>
              <mediatype>audio</mediatype>
              <trackindex>1</trackindex>
              <clipindex>10</clipindex>
              <groupindex>1</groupindex>
            </link>
          </clipitem>
          <clipitem id="clipitem-11">
            <name>overdub_4e10f303-a773-4146-b2e1-6713dec06138.wav</name>
            <enabled>TRUE</enabled>
            <duration>114</duration>
            <start>809</start>
            <end>923</end>
            <in>0</in>
            <out>114</out>
            <file id="file-11">
              <name>overdub_4e10f303-a773-4146-b2e1-6713dec06138.wav</name>
              <pathurl>overdub_4e10f303-a773-4146-b2e1-6713dec06138.wav</pathurl>
              <duration>114</duration>
              <width>1280</width>
              <height>720</height>
              <rate>
                <timebase>30</timebase>
                <ntsc>FALSE</ntsc>
              </rate>
              <media>
                <audio>
                  <samplecharacteristics>
                    <depth>16</depth>
                    <samplerate>44100</samplerate>
                  </samplecharacteristics>
                  <channelcount>1</channelcount>
                </audio>
              </media>
            </file>
            <link>
              <linkclipref>clipitem-11</linkclipref>
              <mediatype>audio</mediatype>
              <trackindex>1</trackindex>
              <clipindex>11</clipindex>
              <groupindex>1</groupindex>
            </link>
          </clipitem>
          <clipitem id="clipitem-12">
            <name>overdub_60b81501-0d23-4053-8c9e-778301844dde.wav</name>
            <enabled>TRUE</enabled>
            <duration>165</duration>
            <start>923</start>
            <end>1089</end>
            <in>0</in>
            <out>165</out>
            <file id="file-12">
              <name>overdub_60b81501-0d23-4053-8c9e-778301844dde.wav</name>
              <pathurl>overdub_60b81501-0d23-4053-8c9e-778301844dde.wav</pathurl>
              <duration>165</duration>
              <width>1280</width>
              <height>720</height>
              <rate>
                <timebase>30</timebase>
                <ntsc>FALSE</ntsc>
              </rate>
              <media>
                <audio>
                  <samplecharacteristics>
                    <depth>16</depth>
                    <samplerate>44100</samplerate>
                  </samplecharacteristics>
                  <channelcount>1</channelcount>
                </audio>
              </media>
            </file>
            <link>
              <linkclipref>clipitem-12</linkclipref>
              <mediatype>audio</mediatype>
              <trackindex>1</trackindex>
              <clipindex>12</clipindex>
              <groupindex>1</groupindex>
            </link>
          </clipitem>
          <clipitem id="clipitem-13">
            <name>overdub_fb40670c-1431-4d08-9f28-1de6cc5a105d.wav</name>
            <enabled>TRUE</enabled>
            <duration>53</duration>
            <start>1089</start>
            <end>1142</end>
            <in>0</in>
            <out>53</out>
            <file id="file-13">
              <name>overdub_fb40670c-1431-4d08-9f28-1de6cc5a105d.wav</name>
              <pathurl>overdub_fb40670c-1431-4d08-9f28-1de6cc5a105d.wav</pathurl>
              <duration>53</duration>
              <width>1280</width>
              <height>720</height>
              <rate>
                <timebase>30</timebase>
                <ntsc>FALSE</ntsc>
              </rate>
              <media>
                <audio>
                  <samplecharacteristics>
                    <depth>16</depth>
                    <samplerate>44100</samplerate>
                  </samplecharacteristics>
                  <channelcount>1</channelcount>
                </audio>
              </media>
            </file>
            <link>
              <linkclipref>clipitem-13</linkclipref>
              <mediatype>audio</mediatype>
              <trackindex>1</trackindex>
              <clipindex>13</clipindex>
              <groupindex>1</groupindex>
            </link>
          </clipitem>
          <clipitem id="clipitem-14">
            <name>overdub_db157e08-b138-4782-a054-b23e06847c2d.wav</name>
            <enabled>TRUE</enabled>
            <duration>197</duration>
            <start>1142</start>
            <end>1339</end>
            <in>0</in>
            <out>197</out>
            <file id="file-14">
              <name>overdub_db157e08-b138-4782-a054-b23e06847c2d.wav</name>
              <pathurl>overdub_db157e08-b138-4782-a054-b23e06847c2d.wav</pathurl>
              <duration>197</duration>
              <width>1280</width>
              <height>720</height>
              <rate>
                <timebase>30</timebase>
                <ntsc>FALSE</ntsc>
              </rate>
              <media>
                <audio>
                  <samplecharacteristics>
                    <depth>16</depth>
                    <samplerate>44100</samplerate>
                  </samplecharacteristics>
                  <channelcount>1</channelcount>
                </audio>
              </media>
            </file>
            <link>
              <linkclipref>clipitem-14</linkclipref>
              <mediatype>audio</mediatype>
              <trackindex>1</trackindex>
              <clipindex>14</clipindex>
              <groupindex>1</groupindex>
            </link>
          </clipitem>
          <clipitem id="clipitem-15">
            <name>overdub_e4e2dcd1-e621-4d83-a69d-e05c533511e5.wav</name>
            <enabled>TRUE</enabled>
            <duration>61</duration>
            <start>1339</start>
            <end>1401</end>
            <in>0</in>
            <out>61</out>
            <file id="file-15">
              <name>overdub_e4e2dcd1-e621-4d83-a69d-e05c533511e5.wav</name>
              <pathurl>overdub_e4e2dcd1-e621-4d83-a69d-e05c533511e5.wav</pathurl>
              <duration>61</duration>
              <width>1280</width>
              <height>720</height>
              <rate>
                <timebase>30</timebase>
                <ntsc>FALSE</ntsc>
              </rate>
              <media>
                <audio>
                  <samplecharacteristics>
                    <depth>16</depth>
                    <samplerate>44100</samplerate>
                  </samplecharacteristics>
                  <channelcount>1</channelcount>
                </audio>
              </media>
            </file>
            <link>
              <linkclipref>clipitem-15</linkclipref>
              <mediatype>audio</mediatype>
              <trackindex>1</trackindex>
              <clipindex>15</clipindex>
              <groupindex>1</groupindex>
            </link>
          </clipitem>
          <clipitem id="clipitem-16">
            <name>overdub_98552c0c-3e1c-4658-8630-401e66db585a.wav</name>
            <enabled>TRUE</enabled>
            <duration>88</duration>
            <start>1401</start>
            <end>1490</end>
            <in>0</in>
            <out>88</out>
            <file id="file-16">
              <name>overdub_98552c0c-3e1c-4658-8630-401e66db585a.wav</name>
              <pathurl>overdub_98552c0c-3e1c-4658-8630-401e66db585a.wav</pathurl>
              <duration>88</duration>
              <width>1280</width>
              <height>720</height>
              <rate>
                <timebase>30</timebase>
                <ntsc>FALSE</ntsc>
              </rate>
              <media>
                <audio>
                  <samplecharacteristics>
                    <depth>16</depth>
                    <samplerate>44100</samplerate>
                  </samplecharacteristics>
                  <channelcount>1</channelcount>
                </audio>
              </media>
            </file>
            <link>
              <linkclipref>clipitem-16</linkclipref>
              <mediatype>audio</mediatype>
              <trackindex>1</trackindex>
              <clipindex>16</clipindex>
              <groupindex>1</groupindex>
            </link>
          </clipitem>
          <clipitem id="clipitem-17">
            <name>overdub_959f0748-77c8-45ba-af96-df993933ce1f.wav</name>
            <enabled>TRUE</enabled>
            <duration>130</duration>
            <start>1490</start>
            <end>1620</end>
            <in>0</in>
            <out>130</out>
            <file id="file-17">
              <name>overdub_959f0748-77c8-45ba-af96-df993933ce1f.wav</name>
              <pathurl>overdub_959f0748-77c8-45ba-af96-df993933ce1f.wav</pathurl>
              <duration>130</duration>
              <width>1280</width>
              <height>720</height>
              <rate>
                <timebase>30</timebase>
                <ntsc>FALSE</ntsc>
              </rate>
              <media>
                <audio>
                  <samplecharacteristics>
                    <depth>16</depth>
                    <samplerate>44100</samplerate>
                  </samplecharacteristics>
                  <channelcount>1</channelcount>
                </audio>
              </media>
            </file>
            <link>
              <linkclipref>clipitem-17</linkclipref>
              <mediatype>audio</mediatype>
              <trackindex>1</trackindex>
              <clipindex>17</clipindex>
              <groupindex>1</groupindex>
            </link>
          </clipitem>
          <clipitem id="clipitem-18">
            <name>overdub_11dd4b99-33bf-4c41-a595-53e1c91b4a49.wav</name>
            <enabled>TRUE</enabled>
            <duration>21</duration>
            <start>1620</start>
            <end>1641</end>
            <in>0</in>
            <out>21</out>
            <file id="file-18">
              <name>overdub_11dd4b99-33bf-4c41-a595-53e1c91b4a49.wav</name>
              <pathurl>overdub_11dd4b99-33bf-4c41-a595-53e1c91b4a49.wav</pathurl>
              <duration>21</duration>
              <width>1280</width>
              <height>720</height>
              <rate>
                <timebase>30</timebase>
                <ntsc>FALSE</ntsc>
              </rate>
              <media>
                <audio>
                  <samplecharacteristics>
                    <depth>16</depth>
                    <samplerate>44100</samplerate>
                  </samplecharacteristics>
                  <channelcount>1</channelcount>
                </audio>
              </media>
            </file>
            <link>
              <linkclipref>clipitem-18</linkclipref>
              <mediatype>audio</mediatype>
              <trackindex>1</trackindex>
              <clipindex>18</clipindex>
              <groupindex>1</groupindex>
            </link>
          </clipitem>
          <clipitem id="clipitem-19">
            <name>overdub_3f3a5bde-9d11-4af1-a4d5-28e2a7da6362.wav</name>
            <enabled>TRUE</enabled>
            <duration>158</duration>
            <start>1641</start>
            <end>1800</end>
            <in>0</in>
            <out>158</out>
            <file id="file-19">
              <name>overdub_3f3a5bde-9d11-4af1-a4d5-28e2a7da6362.wav</name>
              <pathurl>overdub_3f3a5bde-9d11-4af1-a4d5-28e2a7da6362.wav</pathurl>
              <duration>158</duration>
              <width>1280</width>
              <height>720</height>
              <rate>
                <timebase>30</timebase>
                <ntsc>FALSE</ntsc>
              </rate>
              <media>
                <audio>
                  <samplecharacteristics>
                    <depth>16</depth>
                    <samplerate>44100</samplerate>
                  </samplecharacteristics>
                  <channelcount>1</channelcount>
                </audio>
              </media>
            </file>
            <link>
              <linkclipref>clipitem-19</linkclipref>
              <mediatype>audio</mediatype>
              <trackindex>1</trackindex>
              <clipindex>19</clipindex>
              <groupindex>1</groupindex>
            </link>
          </clipitem>
          <clipitem id="clipitem-20">
            <name>overdub_7399633c-13dd-4970-8a7d-f8b2dc7c88de.wav</name>
            <enabled>TRUE</enabled>
            <duration>70</duration>
            <start>1800</start>
            <end>1870</end>
            <in>0</in>
            <out>70</out>
            <file id="file-20">
              <name>overdub_7399633c-13dd-4970-8a7d-f8b2dc7c88de.wav</name>
              <pathurl>overdub_7399633c-13dd-4970-8a7d-f8b2dc7c88de.wav</pathurl>
              <duration>70</duration>
              <width>1280</width>
              <height>720</height>
              <rate>
                <timebase>30</timebase>
                <ntsc>FALSE</ntsc>
              </rate>
              <media>
                <audio>
                  <samplecharacteristics>
                    <depth>16</depth>
                    <samplerate>44100</samplerate>
                  </samplecharacteristics>
                  <channelcount>1</channelcount>
                </audio>
              </media>
            </file>
            <link>
              <linkclipref>clipitem-20</linkclipref>
              <mediatype>audio</mediatype>
              <trackindex>1</trackindex>
              <clipindex>20</clipindex>
              <groupindex>1</groupindex>
            </link>
          </clipitem>
          <clipitem id="clipitem-21">
            <name>overdub_6d155bf5-8981-4ee3-b5e3-4191cdc6bb60.wav</name>
            <enabled>TRUE</enabled>
            <duration>55</duration>
            <start>1870</start>
            <end>1925</end>
            <in>0</in>
            <out>55</out>
            <file id="file-21">
              <name>overdub_6d155bf5-8981-4ee3-b5e3-4191cdc6bb60.wav</name>
              <pathurl>overdub_6d155bf5-8981-4ee3-b5e3-4191cdc6bb60.wav</pathurl>
              <duration>55</duration>
              <width>1280</width>
              <height>720</height>
              <rate>
                <timebase>30</timebase>
                <ntsc>FALSE</ntsc>
              </rate>
              <media>
                <audio>
                  <samplecharacteristics>
                    <depth>16</depth>
                    <samplerate>44100</samplerate>
                  </samplecharacteristics>
                  <channelcount>1</channelcount>
                </audio>
              </media>
            </file>
            <link>
              <linkclipref>clipitem-21</linkclipref>
              <mediatype>audio</mediatype>
              <trackindex>1</trackindex>
              <clipindex>21</clipindex>
              <groupindex>1</groupindex>
            </link>
          </clipitem>
          <clipitem id="clipitem-22">
            <name>overdub_058655c4-49e3-4455-bc82-2f70474f01d5.wav</name>
            <enabled>TRUE</enabled>
            <duration>104</duration>
            <start>1925</start>
            <end>2030</end>
            <in>0</in>
            <out>104</out>
            <file id="file-22">
              <name>overdub_058655c4-49e3-4455-bc82-2f70474f01d5.wav</name>
              <pathurl>overdub_058655c4-49e3-4455-bc82-2f70474f01d5.wav</pathurl>
              <duration>104</duration>
              <width>1280</width>
              <height>720</height>
              <rate>
                <timebase>30</timebase>
                <ntsc>FALSE</ntsc>
              </rate>
              <media>
                <audio>
                  <samplecharacteristics>
                    <depth>16</depth>
                    <samplerate>44100</samplerate>
                  </samplecharacteristics>
                  <channelcount>1</channelcount>
                </audio>
              </media>
            </file>
            <link>
              <linkclipref>clipitem-22</linkclipref>
              <mediatype>audio</mediatype>
              <trackindex>1</trackindex>
              <clipindex>22</clipindex>
              <groupindex>1</groupindex>
            </link>
          </clipitem>
          <clipitem id="clipitem-23">
            <name>overdub_f608e454-fc82-457e-9125-97d8439a37b5.wav</name>
            <enabled>TRUE</enabled>
            <duration>141</duration>
            <start>2030</start>
            <end>2172</end>
            <in>0</in>
            <out>141</out>
            <file id="file-23">
              <name>overdub_f608e454-fc82-457e-9125-97d8439a37b5.wav</name>
              <pathurl>overdub_f608e454-fc82-457e-9125-97d8439a37b5.wav</pathurl>
              <duration>141</duration>
              <width>1280</width>
              <height>720</height>
              <rate>
                <timebase>30</timebase>
                <ntsc>FALSE</ntsc>
              </rate>
              <media>
                <audio>
                  <samplecharacteristics>
                    <depth>16</depth>
                    <samplerate>44100</samplerate>
                  </samplecharacteristics>
                  <channelcount>1</channelcount>
                </audio>
              </media>
            </file>
            <link>
              <linkclipref>clipitem-23</linkclipref>
              <mediatype>audio</mediatype>
              <trackindex>1</trackindex>
              <clipindex>23</clipindex>
              <groupindex>1</groupindex>
            </link>
          </clipitem>
          <clipitem id="clipitem-24">
            <name>overdub_a6f82444-b301-496e-9396-1bd9f9e1784e.wav</name>
            <enabled>TRUE</enabled>
            <duration>52</duration>
            <start>2172</start>
            <end>2224</end>
            <in>0</in>
            <out>52</out>
            <file id="file-24">
              <name>overdub_a6f82444-b301-496e-9396-1bd9f9e1784e.wav</name>
              <pathurl>overdub_a6f82444-b301-496e-9396-1bd9f9e1784e.wav</pathurl>
              <duration>52</duration>
              <width>1280</width>
              <height>720</height>
              <rate>
                <timebase>30</timebase>
                <ntsc>FALSE</ntsc>
              </rate>
              <media>
                <audio>
                  <samplecharacteristics>
                    <depth>16</depth>
                    <samplerate>44100</samplerate>
                  </samplecharacteristics>
                  <channelcount>1</channelcount>
                </audio>
              </media>
            </file>
            <link>
              <linkclipref>clipitem-24</linkclipref>
              <mediatype>audio</mediatype>
              <trackindex>1</trackindex>
              <clipindex>24</clipindex>
              <groupindex>1</groupindex>
            </link>
          </clipitem>
          <clipitem id="clipitem-25">
            <name>overdub_d1bcf28d-d691-4381-ac10-d40086d11b8c.wav</name>
            <enabled>TRUE</enabled>
            <duration>86</duration>
            <start>2224</start>
            <end>2311</end>
            <in>0</in>
            <out>86</out>
            <file id="file-25">
              <name>overdub_d1bcf28d-d691-4381-ac10-d40086d11b8c.wav</name>
              <pathurl>overdub_d1bcf28d-d691-4381-ac10-d40086d11b8c.wav</pathurl>
              <duration>86</duration>
              <width>1280</width>
              <height>720</height>
              <rate>
                <timebase>30</timebase>
                <ntsc>FALSE</ntsc>
              </rate>
              <media>
                <audio>
                  <samplecharacteristics>
                    <depth>16</depth>
                    <samplerate>44100</samplerate>
                  </samplecharacteristics>
                  <channelcount>1</channelcount>
                </audio>
              </media>
            </file>
            <link>
              <linkclipref>clipitem-25</linkclipref>
              <mediatype>audio</mediatype>
              <trackindex>1</trackindex>
              <clipindex>25</clipindex>
              <groupindex>1</groupindex>
            </link>
          </clipitem>
          <clipitem id="clipitem-26">
            <name>overdub_ffe69cac-fadd-49a5-865b-bc06abe73f5c.wav</name>
            <enabled>TRUE</enabled>
            <duration>59</duration>
            <start>2311</start>
            <end>2371</end>
            <in>0</in>
            <out>59</out>
            <file id="file-26">
              <name>overdub_ffe69cac-fadd-49a5-865b-bc06abe73f5c.wav</name>
              <pathurl>overdub_ffe69cac-fadd-49a5-865b-bc06abe73f5c.wav</pathurl>
              <duration>59</duration>
              <width>1280</width>
              <height>720</height>
              <rate>
                <timebase>30</timebase>
                <ntsc>FALSE</ntsc>
              </rate>
              <media>
                <audio>
                  <samplecharacteristics>
                    <depth>16</depth>
                    <samplerate>44100</samplerate>
                  </samplecharacteristics>
                  <channelcount>1</channelcount>
                </audio>
              </media>
            </file>
            <link>
              <linkclipref>clipitem-26</linkclipref>
              <mediatype>audio</mediatype>
              <trackindex>1</trackindex>
              <clipindex>26</clipindex>
              <groupindex>1</groupindex>
            </link>
          </clipitem>
          <clipitem id="clipitem-27">
            <name>overdub_ca425417-cd83-46a3-9df5-7577a165e2fd.wav</name>
            <enabled>TRUE</enabled>
            <duration>112</duration>
            <start>2371</start>
            <end>2483</end>
            <in>0</in>
            <out>112</out>
            <file id="file-27">
              <name>overdub_ca425417-cd83-46a3-9df5-7577a165e2fd.wav</name>
              <pathurl>overdub_ca425417-cd83-46a3-9df5-7577a165e2fd.wav</pathurl>
              <duration>112</duration>
              <width>1280</width>
              <height>720</height>
              <rate>
                <timebase>30</timebase>
                <ntsc>FALSE</ntsc>
              </rate>
              <media>
                <audio>
                  <samplecharacteristics>
                    <depth>16</depth>
                    <samplerate>44100</samplerate>
                  </samplecharacteristics>
                  <channelcount>1</channelcount>
                </audio>
              </media>
            </file>
            <link>
              <linkclipref>clipitem-27</linkclipref>
              <mediatype>audio</mediatype>
              <trackindex>1</trackindex>
              <clipindex>27</clipindex>
              <groupindex>1</groupindex>
            </link>
          </clipitem>
          <clipitem id="clipitem-28">
            <name>overdub_cf71162d-4304-463f-93af-94ac91888836.wav</name>
            <enabled>TRUE</enabled>
            <duration>182</duration>
            <start>2483</start>
            <end>2666</end>
            <in>0</in>
            <out>182</out>
            <file id="file-28">
              <name>overdub_cf71162d-4304-463f-93af-94ac91888836.wav</name>
              <pathurl>overdub_cf71162d-4304-463f-93af-94ac91888836.wav</pathurl>
              <duration>182</duration>
              <width>1280</width>
              <height>720</height>
              <rate>
                <timebase>30</timebase>
                <ntsc>FALSE</ntsc>
              </rate>
              <media>
                <audio>
                  <samplecharacteristics>
                    <depth>16</depth>
                    <samplerate>44100</samplerate>
                  </samplecharacteristics>
                  <channelcount>1</channelcount>
                </audio>
              </media>
            </file>
            <link>
              <linkclipref>clipitem-28</linkclipref>
              <mediatype>audio</mediatype>
              <trackindex>1</trackindex>
              <clipindex>28</clipindex>
              <groupindex>1</groupindex>
            </link>
          </clipitem>
          <clipitem id="clipitem-29">
            <name>overdub_d95bb82b-ec9b-47d6-a29d-6de5c2a3cb0c.wav</name>
            <enabled>TRUE</enabled>
            <duration>44</duration>
            <start>2666</start>
            <end>2710</end>
            <in>0</in>
            <out>44</out>
            <file id="file-29">
              <name>overdub_d95bb82b-ec9b-47d6-a29d-6de5c2a3cb0c.wav</name>
              <pathurl>overdub_d95bb82b-ec9b-47d6-a29d-6de5c2a3cb0c.wav</pathurl>
              <duration>44</duration>
              <width>1280</width>
              <height>720</height>
              <rate>
                <timebase>30</timebase>
                <ntsc>FALSE</ntsc>
              </rate>
              <media>
                <audio>
                  <samplecharacteristics>
                    <depth>16</depth>
                    <samplerate>44100</samplerate>
                  </samplecharacteristics>
                  <channelcount>1</channelcount>
                </audio>
              </media>
            </file>
            <link>
              <linkclipref>clipitem-29</linkclipref>
              <mediatype>audio</mediatype>
              <trackindex>1</trackindex>
              <clipindex>29</clipindex>
              <groupindex>1</groupindex>
            </link>
          </clipitem>
          <clipitem id="clipitem-30">
            <name>overdub_c8f43687-044e-453b-8e66-3809aca32d81.wav</name>
            <enabled>TRUE</enabled>
            <duration>123</duration>
            <start>2710</start>
            <end>2834</end>
            <in>0</in>
            <out>123</out>
            <file id="file-30">
              <name>overdub_c8f43687-044e-453b-8e66-3809aca32d81.wav</name>
              <pathurl>overdub_c8f43687-044e-453b-8e66-3809aca32d81.wav</pathurl>
              <duration>123</duration>
              <width>1280</width>
              <height>720</height>
              <rate>
                <timebase>30</timebase>
                <ntsc>FALSE</ntsc>
              </rate>
              <media>
                <audio>
                  <samplecharacteristics>
                    <depth>16</depth>
                    <samplerate>44100</samplerate>
                  </samplecharacteristics>
                  <channelcount>1</channelcount>
                </audio>
              </media>
            </file>
            <link>
              <linkclipref>clipitem-30</linkclipref>
              <mediatype>audio</mediatype>
              <trackindex>1</trackindex>
              <clipindex>30</clipindex>
              <groupindex>1</groupindex>
            </link>
          </clipitem>
        </track>
      </audio>
    </media>
  </sequence>
</xmeml>