<?xml version="1.0" encoding="utf-8"?>
<xmeml version="4">
  <!-- Exported by Descript -->
  <sequence id="DF Positive">
    <duration>2791</duration>
    <name>DF Positive</name>
    <width>1280</width>
    <height>720</height>
    <rate>
      <timebase>30</timebase>
      <ntsc>FALSE</ntsc>
    </rate>
    <media>
      <video>
        <format>
          <samplecharacteristics>
            <pixelaspectratio>square</pixelaspectratio>
            <anamorphic>FALSE</anamorphic>
            <fielddominance>none</fielddominance>
            <colordepth>24</colordepth>
            <width>1280</width>
            <height>720</height>
            <rate>
              <timebase>30</timebase>
              <ntsc>FALSE</ntsc>
            </rate>
          </samplecharacteristics>
        </format>
      </video>
      <audio>
        <numOutputChannels>2</numOutputChannels>
        <format>
          <samplecharacteristics>
            <depth>16</depth>
            <samplerate>44100</samplerate>
          </samplecharacteristics>
        </format>
        <outputs>
          <group>
            <index>1</index>
            <numchannels>1</numchannels>
            <downmix>0</downmix>
            <channel>
              <index>1</index>
            </channel>
          </group>
          <group>
            <index>2</index>
            <numchannels>1</numchannels>
            <downmix>0</downmix>
            <channel>
              <index>2</index>
            </channel>
          </group>
        </outputs>
        <track>
          <clipitem id="clipitem-1">
            <name>overdub_38694894-e19b-4d24-b670-180aab233618.wav</name>
            <enabled>TRUE</enabled>
            <duration>71</duration>
            <start>0</start>
            <end>71</end>
            <in>0</in>
            <out>71</out>
            <file id="file-1">
              <name>overdub_38694894-e19b-4d24-b670-180aab233618.wav</name>
              <pathurl>overdub_38694894-e19b-4d24-b670-180aab233618.wav</pathurl>
              <duration>71</duration>
              <width>1280</width>
              <height>720</height>
              <rate>
                <timebase>30</timebase>
                <ntsc>FALSE</ntsc>
              </rate>
              <media>
                <audio>
                  <samplecharacteristics>
                    <depth>16</depth>
                    <samplerate>44100</samplerate>
                  </samplecharacteristics>
                  <channelcount>1</channelcount>
                </audio>
              </media>
            </file>
            <link>
              <linkclipref>clipitem-1</linkclipref>
              <mediatype>audio</mediatype>
              <trackindex>1</trackindex>
              <clipindex>1</clipindex>
              <groupindex>1</groupindex>
            </link>
          </clipitem>
          <clipitem id="clipitem-2">
            <name>overdub_78ea3832-c83e-4e31-b6fc-d08942d2b11f.wav</name>
            <enabled>TRUE</enabled>
            <duration>118</duration>
            <start>71</start>
            <end>189</end>
            <in>0</in>
            <out>118</out>
            <file id="file-2">
              <name>overdub_78ea3832-c83e-4e31-b6fc-d08942d2b11f.wav</name>
              <pathurl>overdub_78ea3832-c83e-4e31-b6fc-d08942d2b11f.wav</pathurl>
              <duration>118</duration>
              <width>1280</width>
              <height>720</height>
              <rate>
                <timebase>30</timebase>
                <ntsc>FALSE</ntsc>
              </rate>
              <media>
                <audio>
                  <samplecharacteristics>
                    <depth>16</depth>
                    <samplerate>44100</samplerate>
                  </samplecharacteristics>
                  <channelcount>1</channelcount>
                </audio>
              </media>
            </file>
            <link>
              <linkclipref>clipitem-2</linkclipref>
              <mediatype>audio</mediatype>
              <trackindex>1</trackindex>
              <clipindex>2</clipindex>
              <groupindex>1</groupindex>
            </link>
          </clipitem>
          <clipitem id="clipitem-3">
            <name>overdub_8451e766-b39b-47d2-ba55-1659f75ae9e4.wav</name>
            <enabled>TRUE</enabled>
            <duration>80</duration>
            <start>189</start>
            <end>270</end>
            <in>0</in>
            <out>80</out>
            <file id="file-3">
              <name>overdub_8451e766-b39b-47d2-ba55-1659f75ae9e4.wav</name>
              <pathurl>overdub_8451e766-b39b-47d2-ba55-1659f75ae9e4.wav</pathurl>
              <duration>80</duration>
              <width>1280</width>
              <height>720</height>
              <rate>
                <timebase>30</timebase>
                <ntsc>FALSE</ntsc>
              </rate>
              <media>
                <audio>
                  <samplecharacteristics>
                    <depth>16</depth>
                    <samplerate>44100</samplerate>
                  </samplecharacteristics>
                  <channelcount>1</channelcount>
                </audio>
              </media>
            </file>
            <link>
              <linkclipref>clipitem-3</linkclipref>
              <mediatype>audio</mediatype>
              <trackindex>1</trackindex>
              <clipindex>3</clipindex>
              <groupindex>1</groupindex>
            </link>
          </clipitem>
          <clipitem id="clipitem-4">
            <name>overdub_601749c9-12bf-477d-aec0-0351e1494962.wav</name>
            <enabled>TRUE</enabled>
            <duration>61</duration>
            <start>270</start>
            <end>331</end>
            <in>0</in>
            <out>61</out>
            <file id="file-4">
              <name>overdub_601749c9-12bf-477d-aec0-0351e1494962.wav</name>
              <pathurl>overdub_601749c9-12bf-477d-aec0-0351e1494962.wav</pathurl>
              <duration>61</duration>
              <width>1280</width>
              <height>720</height>
              <rate>
                <timebase>30</timebase>
                <ntsc>FALSE</ntsc>
              </rate>
              <media>
                <audio>
                  <samplecharacteristics>
                    <depth>16</depth>
                    <samplerate>44100</samplerate>
                  </samplecharacteristics>
                  <channelcount>1</channelcount>
                </audio>
              </media>
            </file>
            <link>
              <linkclipref>clipitem-4</linkclipref>
              <mediatype>audio</mediatype>
              <trackindex>1</trackindex>
              <clipindex>4</clipindex>
              <groupindex>1</groupindex>
            </link>
          </clipitem>
          <clipitem id="clipitem-5">
            <name>overdub_de0f2aac-9bbb-451f-9bd3-2380e552e64f.wav</name>
            <enabled>TRUE</enabled>
            <duration>138</duration>
            <start>331</start>
            <end>469</end>
            <in>0</in>
            <out>138</out>
            <file id="file-5">
              <name>overdub_de0f2aac-9bbb-451f-9bd3-2380e552e64f.wav</name>
              <pathurl>overdub_de0f2aac-9bbb-451f-9bd3-2380e552e64f.wav</pathurl>
              <duration>138</duration>
              <width>1280</width>
              <height>720</height>
              <rate>
                <timebase>30</timebase>
                <ntsc>FALSE</ntsc>
              </rate>
              <media>
                <audio>
                  <samplecharacteristics>
                    <depth>16</depth>
                    <samplerate>44100</samplerate>
                  </samplecharacteristics>
                  <channelcount>1</channelcount>
                </audio>
              </media>
            </file>
            <link>
              <linkclipref>clipitem-5</linkclipref>
              <mediatype>audio</mediatype>
              <trackindex>1</trackindex>
              <clipindex>5</clipindex>
              <groupindex>1</groupindex>
            </link>
          </clipitem>
          <clipitem id="clipitem-6">
            <name>overdub_41697da6-4835-4eb6-ab0b-6db966560fe9.wav</name>
            <enabled>TRUE</enabled>
            <duration>43</duration>
            <start>469</start>
            <end>512</end>
            <in>0</in>
            <out>43</out>
            <file id="file-6">
              <name>overdub_41697da6-4835-4eb6-ab0b-6db966560fe9.wav</name>
              <pathurl>overdub_41697da6-4835-4eb6-ab0b-6db966560fe9.wav</pathurl>
              <duration>43</duration>
              <width>1280</width>
              <height>720</height>
              <rate>
                <timebase>30</timebase>
                <ntsc>FALSE</ntsc>
              </rate>
              <media>
                <audio>
                  <samplecharacteristics>
                    <depth>16</depth>
                    <samplerate>44100</samplerate>
                  </samplecharacteristics>
                  <channelcount>1</channelcount>
                </audio>
              </media>
            </file>
            <link>
              <linkclipref>clipitem-6</linkclipref>
              <mediatype>audio</mediatype>
              <trackindex>1</trackindex>
              <clipindex>6</clipindex>
              <groupindex>1</groupindex>
            </link>
          </clipitem>
          <clipitem id="clipitem-7">
            <name>overdub_93b2e7d1-a224-478e-a70c-474e624beab6.wav</name>
            <enabled>TRUE</enabled>
            <duration>91</duration>
            <start>512</start>
            <end>604</end>
            <in>0</in>
            <out>91</out>
            <file id="file-7">
              <name>overdub_93b2e7d1-a224-478e-a70c-474e624beab6.wav</name>
              <pathurl>overdub_93b2e7d1-a224-478e-a70c-474e624beab6.wav</pathurl>
              <duration>91</duration>
              <width>1280</width>
              <height>720</height>
              <rate>
                <timebase>30</timebase>
                <ntsc>FALSE</ntsc>
              </rate>
              <media>
                <audio>
                  <samplecharacteristics>
                    <depth>16</depth>
                    <samplerate>44100</samplerate>
                  </samplecharacteristics>
                  <channelcount>1</channelcount>
                </audio>
              </media>
            </file>
            <link>
              <linkclipref>clipitem-7</linkclipref>
              <mediatype>audio</mediatype>
              <trackindex>1</trackindex>
              <clipindex>7</clipindex>
              <groupindex>1</groupindex>
            </link>
          </clipitem>
          <clipitem id="clipitem-8">
            <name>overdub_d1684b00-4959-4bfd-a0d4-418488c9aae9.wav</name>
            <enabled>TRUE</enabled>
            <duration>43</duration>
            <start>604</start>
            <end>648</end>
            <in>0</in>
            <out>43</out>
            <file id="file-8">
              <name>overdub_d1684b00-4959-4bfd-a0d4-418488c9aae9.wav</name>
              <pathurl>overdub_d1684b00-4959-4bfd-a0d4-418488c9aae9.wav</pathurl>
              <duration>43</duration>
              <width>1280</width>
              <height>720</height>
              <rate>
                <timebase>30</timebase>
                <ntsc>FALSE</ntsc>
              </rate>
              <media>
                <audio>
                  <samplecharacteristics>
                    <depth>16</depth>
                    <samplerate>44100</samplerate>
                  </samplecharacteristics>
                  <channelcount>1</channelcount>
                </audio>
              </media>
            </file>
            <link>
              <linkclipref>clipitem-8</linkclipref>
              <mediatype>audio</mediatype>
              <trackindex>1</trackindex>
              <clipindex>8</clipindex>
              <groupindex>1</groupindex>
            </link>
          </clipitem>
          <clipitem id="clipitem-9">
            <name>overdub_1b5aea9f-fa0e-4ea3-9b39-2664f3b3afcb.wav</name>
            <enabled>TRUE</enabled>
            <duration>40</duration>
            <start>648</start>
            <end>688</end>
            <in>0</in>
            <out>40</out>
            <file id="file-9">
              <name>overdub_1b5aea9f-fa0e-4ea3-9b39-2664f3b3afcb.wav</name>
              <pathurl>overdub_1b5aea9f-fa0e-4ea3-9b39-2664f3b3afcb.wav</pathurl>
              <duration>40</duration>
              <width>1280</width>
              <height>720</height>
              <rate>
                <timebase>30</timebase>
                <ntsc>FALSE</ntsc>
              </rate>
              <media>
                <audio>
                  <samplecharacteristics>
                    <depth>16</depth>
                    <samplerate>44100</samplerate>
                  </samplecharacteristics>
                  <channelcount>1</channelcount>
                </audio>
              </media>
            </file>
            <link>
              <linkclipref>clipitem-9</linkclipref>
              <mediatype>audio</mediatype>
              <trackindex>1</trackindex>
              <clipindex>9</clipindex>
              <groupindex>1</groupindex>
            </link>
          </clipitem>
          <clipitem id="clipitem-10">
            <name>overdub_0d21f8ab-66a3-4786-a961-a84fdd738f67.wav</name>
            <enabled>TRUE</enabled>
            <duration>92</duration>
            <start>688</start>
            <end>780</end>
            <in>0</in>
            <out>92</out>
            <file id="file-10">
              <name>overdub_0d21f8ab-66a3-4786-a961-a84fdd738f67.wav</name>
              <pathurl>overdub_0d21f8ab-66a3-4786-a961-a84fdd738f67.wav</pathurl>
              <duration>92</duration>
              <width>1280</width>
              <height>720</height>
              <rate>
                <timebase>30</timebase>
                <ntsc>FALSE</ntsc>
              </rate>
              <media>
                <audio>
                  <samplecharacteristics>
                    <depth>16</depth>
                    <samplerate>44100</samplerate>
                  </samplecharacteristics>
                  <channelcount>1</channelcount>
                </audio>
              </media>
            </file>
            <link>
              <linkclipref>clipitem-10</linkclipref>
              <mediatype>audio</mediatype>
              <trackindex>1</trackindex>
              <clipindex>10</clipindex>
              <groupindex>1</groupindex>
            </link>
          </clipitem>
          <clipitem id="clipitem-11">
            <name>overdub_1c332299-6abd-4533-bc53-044afab60486.wav</name>
            <enabled>TRUE</enabled>
            <duration>114</duration>
            <start>780</start>
            <end>894</end>
            <in>0</in>
            <out>114</out>
            <file id="file-11">
              <name>overdub_1c332299-6abd-4533-bc53-044afab60486.wav</name>
              <pathurl>overdub_1c332299-6abd-4533-bc53-044afab60486.wav</pathurl>
              <duration>114</duration>
              <width>1280</width>
              <height>720</height>
              <rate>
                <timebase>30</timebase>
                <ntsc>FALSE</ntsc>
              </rate>
              <media>
                <audio>
                  <samplecharacteristics>
                    <depth>16</depth>
                    <samplerate>44100</samplerate>
                  </samplecharacteristics>
                  <channelcount>1</channelcount>
                </audio>
              </media>
            </file>
            <link>
              <linkclipref>clipitem-11</linkclipref>
              <mediatype>audio</mediatype>
              <trackindex>1</trackindex>
              <clipindex>11</clipindex>
              <groupindex>1</groupindex>
            </link>
          </clipitem>
          <clipitem id="clipitem-12">
            <name>overdub_46d74eb9-2fb8-4796-b960-dce4dcdda0bc.wav</name>
            <enabled>TRUE</enabled>
            <duration>165</duration>
            <start>894</start>
            <end>1060</end>
            <in>0</in>
            <out>165</out>
            <file id="file-12">
              <name>overdub_46d74eb9-2fb8-4796-b960-dce4dcdda0bc.wav</name>
              <pathurl>overdub_46d74eb9-2fb8-4796-b960-dce4dcdda0bc.wav</pathurl>
              <duration>165</duration>
              <width>1280</width>
              <height>720</height>
              <rate>
                <timebase>30</timebase>
                <ntsc>FALSE</ntsc>
              </rate>
              <media>
                <audio>
                  <samplecharacteristics>
                    <depth>16</depth>
                    <samplerate>44100</samplerate>
                  </samplecharacteristics>
                  <channelcount>1</channelcount>
                </audio>
              </media>
            </file>
            <link>
              <linkclipref>clipitem-12</linkclipref>
              <mediatype>audio</mediatype>
              <trackindex>1</trackindex>
              <clipindex>12</clipindex>
              <groupindex>1</groupindex>
            </link>
          </clipitem>
          <clipitem id="clipitem-13">
            <name>overdub_ea20ec64-4a5d-4888-bd09-a4d670a59d8e.wav</name>
            <enabled>TRUE</enabled>
            <duration>53</duration>
            <start>1060</start>
            <end>1113</end>
            <in>0</in>
            <out>53</out>
            <file id="file-13">
              <name>overdub_ea20ec64-4a5d-4888-bd09-a4d670a59d8e.wav</name>
              <pathurl>overdub_ea20ec64-4a5d-4888-bd09-a4d670a59d8e.wav</pathurl>
              <duration>53</duration>
              <width>1280</width>
              <height>720</height>
              <rate>
                <timebase>30</timebase>
                <ntsc>FALSE</ntsc>
              </rate>
              <media>
                <audio>
                  <samplecharacteristics>
                    <depth>16</depth>
                    <samplerate>44100</samplerate>
                  </samplecharacteristics>
                  <channelcount>1</channelcount>
                </audio>
              </media>
            </file>
            <link>
              <linkclipref>clipitem-13</linkclipref>
              <mediatype>audio</mediatype>
              <trackindex>1</trackindex>
              <clipindex>13</clipindex>
              <groupindex>1</groupindex>
            </link>
          </clipitem>
          <clipitem id="clipitem-14">
            <name>overdub_6c130059-76cf-40f2-bef9-ac52deaed2a0.wav</name>
            <enabled>TRUE</enabled>
            <duration>209</duration>
            <start>1113</start>
            <end>1323</end>
            <in>0</in>
            <out>209</out>
            <file id="file-14">
              <name>overdub_6c130059-76cf-40f2-bef9-ac52deaed2a0.wav</name>
              <pathurl>overdub_6c130059-76cf-40f2-bef9-ac52deaed2a0.wav</pathurl>
              <duration>209</duration>
              <width>1280</width>
              <height>720</height>
              <rate>
                <timebase>30</timebase>
                <ntsc>FALSE</ntsc>
              </rate>
              <media>
                <audio>
                  <samplecharacteristics>
                    <depth>16</depth>
                    <samplerate>44100</samplerate>
                  </samplecharacteristics>
                  <channelcount>1</channelcount>
                </audio>
              </media>
            </file>
            <link>
              <linkclipref>clipitem-14</linkclipref>
              <mediatype>audio</mediatype>
              <trackindex>1</trackindex>
              <clipindex>14</clipindex>
              <groupindex>1</groupindex>
            </link>
          </clipitem>
          <clipitem id="clipitem-15">
            <name>overdub_dbc24dca-60f4-4da1-be1c-dad0a421e3fc.wav</name>
            <enabled>TRUE</enabled>
            <duration>63</duration>
            <start>1323</start>
            <end>1386</end>
            <in>0</in>
            <out>63</out>
            <file id="file-15">
              <name>overdub_dbc24dca-60f4-4da1-be1c-dad0a421e3fc.wav</name>
              <pathurl>overdub_dbc24dca-60f4-4da1-be1c-dad0a421e3fc.wav</pathurl>
              <duration>63</duration>
              <width>1280</width>
              <height>720</height>
              <rate>
                <timebase>30</timebase>
                <ntsc>FALSE</ntsc>
              </rate>
              <media>
                <audio>
                  <samplecharacteristics>
                    <depth>16</depth>
                    <samplerate>44100</samplerate>
                  </samplecharacteristics>
                  <channelcount>1</channelcount>
                </audio>
              </media>
            </file>
            <link>
              <linkclipref>clipitem-15</linkclipref>
              <mediatype>audio</mediatype>
              <trackindex>1</trackindex>
              <clipindex>15</clipindex>
              <groupindex>1</groupindex>
            </link>
          </clipitem>
          <clipitem id="clipitem-16">
            <name>overdub_47a9c26c-8eb8-4e84-8d2e-d1f483c7248d.wav</name>
            <enabled>TRUE</enabled>
            <duration>105</duration>
            <start>1386</start>
            <end>1492</end>
            <in>0</in>
            <out>105</out>
            <file id="file-16">
              <name>overdub_47a9c26c-8eb8-4e84-8d2e-d1f483c7248d.wav</name>
              <pathurl>overdub_47a9c26c-8eb8-4e84-8d2e-d1f483c7248d.wav</pathurl>
              <duration>105</duration>
              <width>1280</width>
              <height>720</height>
              <rate>
                <timebase>30</timebase>
                <ntsc>FALSE</ntsc>
              </rate>
              <media>
                <audio>
                  <samplecharacteristics>
                    <depth>16</depth>
                    <samplerate>44100</samplerate>
                  </samplecharacteristics>
                  <channelcount>1</channelcount>
                </audio>
              </media>
            </file>
            <link>
              <linkclipref>clipitem-16</linkclipref>
              <mediatype>audio</mediatype>
              <trackindex>1</trackindex>
              <clipindex>16</clipindex>
              <groupindex>1</groupindex>
            </link>
          </clipitem>
          <clipitem id="clipitem-17">
            <name>overdub_4523b11a-d518-43d9-a067-2d5fad81f89d.wav</name>
            <enabled>TRUE</enabled>
            <duration>129</duration>
            <start>1492</start>
            <end>1622</end>
            <in>0</in>
            <out>129</out>
            <file id="file-17">
              <name>overdub_4523b11a-d518-43d9-a067-2d5fad81f89d.wav</name>
              <pathurl>overdub_4523b11a-d518-43d9-a067-2d5fad81f89d.wav</pathurl>
              <duration>129</duration>
              <width>1280</width>
              <height>720</height>
              <rate>
                <timebase>30</timebase>
                <ntsc>FALSE</ntsc>
              </rate>
              <media>
                <audio>
                  <samplecharacteristics>
                    <depth>16</depth>
                    <samplerate>44100</samplerate>
                  </samplecharacteristics>
                  <channelcount>1</channelcount>
                </audio>
              </media>
            </file>
            <link>
              <linkclipref>clipitem-17</linkclipref>
              <mediatype>audio</mediatype>
              <trackindex>1</trackindex>
              <clipindex>17</clipindex>
              <groupindex>1</groupindex>
            </link>
          </clipitem>
          <clipitem id="clipitem-18">
            <name>overdub_5372ac04-8eda-4d09-83f9-5062a2d1066d.wav</name>
            <enabled>TRUE</enabled>
            <duration>28</duration>
            <start>1622</start>
            <end>1650</end>
            <in>0</in>
            <out>28</out>
            <file id="file-18">
              <name>overdub_5372ac04-8eda-4d09-83f9-5062a2d1066d.wav</name>
              <pathurl>overdub_5372ac04-8eda-4d09-83f9-5062a2d1066d.wav</pathurl>
              <duration>28</duration>
              <width>1280</width>
              <height>720</height>
              <rate>
                <timebase>30</timebase>
                <ntsc>FALSE</ntsc>
              </rate>
              <media>
                <audio>
                  <samplecharacteristics>
                    <depth>16</depth>
                    <samplerate>44100</samplerate>
                  </samplecharacteristics>
                  <channelcount>1</channelcount>
                </audio>
              </media>
            </file>
            <link>
              <linkclipref>clipitem-18</linkclipref>
              <mediatype>audio</mediatype>
              <trackindex>1</trackindex>
              <clipindex>18</clipindex>
              <groupindex>1</groupindex>
            </link>
          </clipitem>
          <clipitem id="clipitem-19">
            <name>overdub_d8d9863e-9399-42fd-9df0-8c61ca586b8e.wav</name>
            <enabled>TRUE</enabled>
            <duration>163</duration>
            <start>1650</start>
            <end>1814</end>
            <in>0</in>
            <out>163</out>
            <file id="file-19">
              <name>overdub_d8d9863e-9399-42fd-9df0-8c61ca586b8e.wav</name>
              <pathurl>overdub_d8d9863e-9399-42fd-9df0-8c61ca586b8e.wav</pathurl>
              <duration>163</duration>
              <width>1280</width>
              <height>720</height>
              <rate>
                <timebase>30</timebase>
                <ntsc>FALSE</ntsc>
              </rate>
              <media>
                <audio>
                  <samplecharacteristics>
                    <depth>16</depth>
                    <samplerate>44100</samplerate>
                  </samplecharacteristics>
                  <channelcount>1</channelcount>
                </audio>
              </media>
            </file>
            <link>
              <linkclipref>clipitem-19</linkclipref>
              <mediatype>audio</mediatype>
              <trackindex>1</trackindex>
              <clipindex>19</clipindex>
              <groupindex>1</groupindex>
            </link>
          </clipitem>
          <clipitem id="clipitem-20">
            <name>overdub_2950af2e-2f55-4c28-b34f-c85f73c860a6.wav</name>
            <enabled>TRUE</enabled>
            <duration>58</duration>
            <start>1814</start>
            <end>1872</end>
            <in>0</in>
            <out>58</out>
            <file id="file-20">
              <name>overdub_2950af2e-2f55-4c28-b34f-c85f73c860a6.wav</name>
              <pathurl>overdub_2950af2e-2f55-4c28-b34f-c85f73c860a6.wav</pathurl>
              <duration>58</duration>
              <width>1280</width>
              <height>720</height>
              <rate>
                <timebase>30</timebase>
                <ntsc>FALSE</ntsc>
              </rate>
              <media>
                <audio>
                  <samplecharacteristics>
                    <depth>16</depth>
                    <samplerate>44100</samplerate>
                  </samplecharacteristics>
                  <channelcount>1</channelcount>
                </audio>
              </media>
            </file>
            <link>
              <linkclipref>clipitem-20</linkclipref>
              <mediatype>audio</mediatype>
              <trackindex>1</trackindex>
              <clipindex>20</clipindex>
              <groupindex>1</groupindex>
            </link>
          </clipitem>
          <clipitem id="clipitem-21">
            <name>overdub_1174b031-f03b-4004-b6b2-ee9a98c12f07.wav</name>
            <enabled>TRUE</enabled>
            <duration>55</duration>
            <start>1872</start>
            <end>1928</end>
            <in>0</in>
            <out>55</out>
            <file id="file-21">
              <name>overdub_1174b031-f03b-4004-b6b2-ee9a98c12f07.wav</name>
              <pathurl>overdub_1174b031-f03b-4004-b6b2-ee9a98c12f07.wav</pathurl>
              <duration>55</duration>
              <width>1280</width>
              <height>720</height>
              <rate>
                <timebase>30</timebase>
                <ntsc>FALSE</ntsc>
              </rate>
              <media>
                <audio>
                  <samplecharacteristics>
                    <depth>16</depth>
                    <samplerate>44100</samplerate>
                  </samplecharacteristics>
                  <channelcount>1</channelcount>
                </audio>
              </media>
            </file>
            <link>
              <linkclipref>clipitem-21</linkclipref>
              <mediatype>audio</mediatype>
              <trackindex>1</trackindex>
              <clipindex>21</clipindex>
              <groupindex>1</groupindex>
            </link>
          </clipitem>
          <clipitem id="clipitem-22">
            <name>overdub_a19364a8-5fb6-4580-8970-151d8ca7a1b9.wav</name>
            <enabled>TRUE</enabled>
            <duration>104</duration>
            <start>1928</start>
            <end>2032</end>
            <in>0</in>
            <out>104</out>
            <file id="file-22">
              <name>overdub_a19364a8-5fb6-4580-8970-151d8ca7a1b9.wav</name>
              <pathurl>overdub_a19364a8-5fb6-4580-8970-151d8ca7a1b9.wav</pathurl>
              <duration>104</duration>
              <width>1280</width>
              <height>720</height>
              <rate>
                <timebase>30</timebase>
                <ntsc>FALSE</ntsc>
              </rate>
              <media>
                <audio>
                  <samplecharacteristics>
                    <depth>16</depth>
                    <samplerate>44100</samplerate>
                  </samplecharacteristics>
                  <channelcount>1</channelcount>
                </audio>
              </media>
            </file>
            <link>
              <linkclipref>clipitem-22</linkclipref>
              <mediatype>audio</mediatype>
              <trackindex>1</trackindex>
              <clipindex>22</clipindex>
              <groupindex>1</groupindex>
            </link>
          </clipitem>
          <clipitem id="clipitem-23">
            <name>overdub_9d340aef-1a45-41e8-874a-c005366e0f9f.wav</name>
            <enabled>TRUE</enabled>
            <duration>141</duration>
            <start>2032</start>
            <end>2174</end>
            <in>0</in>
            <out>141</out>
            <file id="file-23">
              <name>overdub_9d340aef-1a45-41e8-874a-c005366e0f9f.wav</name>
              <pathurl>overdub_9d340aef-1a45-41e8-874a-c005366e0f9f.wav</pathurl>
              <duration>141</duration>
              <width>1280</width>
              <height>720</height>
              <rate>
                <timebase>30</timebase>
                <ntsc>FALSE</ntsc>
              </rate>
              <media>
                <audio>
                  <samplecharacteristics>
                    <depth>16</depth>
                    <samplerate>44100</samplerate>
                  </samplecharacteristics>
                  <channelcount>1</channelcount>
                </audio>
              </media>
            </file>
            <link>
              <linkclipref>clipitem-23</linkclipref>
              <mediatype>audio</mediatype>
              <trackindex>1</trackindex>
              <clipindex>23</clipindex>
              <groupindex>1</groupindex>
            </link>
          </clipitem>
          <clipitem id="clipitem-24">
            <name>overdub_ed7cba89-ad68-4096-8e1a-ee4b73913a0a.wav</name>
            <enabled>TRUE</enabled>
            <duration>52</duration>
            <start>2174</start>
            <end>2227</end>
            <in>0</in>
            <out>52</out>
            <file id="file-24">
              <name>overdub_ed7cba89-ad68-4096-8e1a-ee4b73913a0a.wav</name>
              <pathurl>overdub_ed7cba89-ad68-4096-8e1a-ee4b73913a0a.wav</pathurl>
              <duration>52</duration>
              <width>1280</width>
              <height>720</height>
              <rate>
                <timebase>30</timebase>
                <ntsc>FALSE</ntsc>
              </rate>
              <media>
                <audio>
                  <samplecharacteristics>
                    <depth>16</depth>
                    <samplerate>44100</samplerate>
                  </samplecharacteristics>
                  <channelcount>1</channelcount>
                </audio>
              </media>
            </file>
            <link>
              <linkclipref>clipitem-24</linkclipref>
              <mediatype>audio</mediatype>
              <trackindex>1</trackindex>
              <clipindex>24</clipindex>
              <groupindex>1</groupindex>
            </link>
          </clipitem>
          <clipitem id="clipitem-25">
            <name>overdub_a2fd34bb-8fe3-4371-8e78-d57b4efd5a4d.wav</name>
            <enabled>TRUE</enabled>
            <duration>86</duration>
            <start>2227</start>
            <end>2313</end>
            <in>0</in>
            <out>86</out>
            <file id="file-25">
              <name>overdub_a2fd34bb-8fe3-4371-8e78-d57b4efd5a4d.wav</name>
              <pathurl>overdub_a2fd34bb-8fe3-4371-8e78-d57b4efd5a4d.wav</pathurl>
              <duration>86</duration>
              <width>1280</width>
              <height>720</height>
              <rate>
                <timebase>30</timebase>
                <ntsc>FALSE</ntsc>
              </rate>
              <media>
                <audio>
                  <samplecharacteristics>
                    <depth>16</depth>
                    <samplerate>44100</samplerate>
                  </samplecharacteristics>
                  <channelcount>1</channelcount>
                </audio>
              </media>
            </file>
            <link>
              <linkclipref>clipitem-25</linkclipref>
              <mediatype>audio</mediatype>
              <trackindex>1</trackindex>
              <clipindex>25</clipindex>
              <groupindex>1</groupindex>
            </link>
          </clipitem>
          <clipitem id="clipitem-26">
            <name>overdub_557c16d6-d559-4532-be9b-90165ba2357b.wav</name>
            <enabled>TRUE</enabled>
            <duration>59</duration>
            <start>2313</start>
            <end>2373</end>
            <in>0</in>
            <out>59</out>
            <file id="file-26">
              <name>overdub_557c16d6-d559-4532-be9b-90165ba2357b.wav</name>
              <pathurl>overdub_557c16d6-d559-4532-be9b-90165ba2357b.wav</pathurl>
              <duration>59</duration>
              <width>1280</width>
              <height>720</height>
              <rate>
                <timebase>30</timebase>
                <ntsc>FALSE</ntsc>
              </rate>
              <media>
                <audio>
                  <samplecharacteristics>
                    <depth>16</depth>
                    <samplerate>44100</samplerate>
                  </samplecharacteristics>
                  <channelcount>1</channelcount>
                </audio>
              </media>
            </file>
            <link>
              <linkclipref>clipitem-26</linkclipref>
              <mediatype>audio</mediatype>
              <trackindex>1</trackindex>
              <clipindex>26</clipindex>
              <groupindex>1</groupindex>
            </link>
          </clipitem>
          <clipitem id="clipitem-27">
            <name>overdub_f53b08e9-cc91-472a-8818-122f091751f7.wav</name>
            <enabled>TRUE</enabled>
            <duration>129</duration>
            <start>2373</start>
            <end>2502</end>
            <in>0</in>
            <out>129</out>
            <file id="file-27">
              <name>overdub_f53b08e9-cc91-472a-8818-122f091751f7.wav</name>
              <pathurl>overdub_f53b08e9-cc91-472a-8818-122f091751f7.wav</pathurl>
              <duration>129</duration>
              <width>1280</width>
              <height>720</height>
              <rate>
                <timebase>30</timebase>
                <ntsc>FALSE</ntsc>
              </rate>
              <media>
                <audio>
                  <samplecharacteristics>
                    <depth>16</depth>
                    <samplerate>44100</samplerate>
                  </samplecharacteristics>
                  <channelcount>1</channelcount>
                </audio>
              </media>
            </file>
            <link>
              <linkclipref>clipitem-27</linkclipref>
              <mediatype>audio</mediatype>
              <trackindex>1</trackindex>
              <clipindex>27</clipindex>
              <groupindex>1</groupindex>
            </link>
          </clipitem>
          <clipitem id="clipitem-28">
            <name>overdub_f6c71e13-8144-48e4-b336-0bda0d3750f9.wav</name>
            <enabled>TRUE</enabled>
            <duration>121</duration>
            <start>2502</start>
            <end>2623</end>
            <in>0</in>
            <out>121</out>
            <file id="file-28">
              <name>overdub_f6c71e13-8144-48e4-b336-0bda0d3750f9.wav</name>
              <pathurl>overdub_f6c71e13-8144-48e4-b336-0bda0d3750f9.wav</pathurl>
              <duration>121</duration>
              <width>1280</width>
              <height>720</height>
              <rate>
                <timebase>30</timebase>
                <ntsc>FALSE</ntsc>
              </rate>
              <media>
                <audio>
                  <samplecharacteristics>
                    <depth>16</depth>
                    <samplerate>44100</samplerate>
                  </samplecharacteristics>
                  <channelcount>1</channelcount>
                </audio>
              </media>
            </file>
            <link>
              <linkclipref>clipitem-28</linkclipref>
              <mediatype>audio</mediatype>
              <trackindex>1</trackindex>
              <clipindex>28</clipindex>
              <groupindex>1</groupindex>
            </link>
          </clipitem>
          <clipitem id="clipitem-29">
            <name>overdub_38db6032-39f5-4e30-9bf7-742f01ca8fa6.wav</name>
            <enabled>TRUE</enabled>
            <duration>44</duration>
            <start>2623</start>
            <end>2667</end>
            <in>0</in>
            <out>44</out>
            <file id="file-29">
              <name>overdub_38db6032-39f5-4e30-9bf7-742f01ca8fa6.wav</name>
              <pathurl>overdub_38db6032-39f5-4e30-9bf7-742f01ca8fa6.wav</pathurl>
              <duration>44</duration>
              <width>1280</width>
              <height>720</height>
              <rate>
                <timebase>30</timebase>
                <ntsc>FALSE</ntsc>
              </rate>
              <media>
                <audio>
                  <samplecharacteristics>
                    <depth>16</depth>
                    <samplerate>44100</samplerate>
                  </samplecharacteristics>
                  <channelcount>1</channelcount>
                </audio>
              </media>
            </file>
            <link>
              <linkclipref>clipitem-29</linkclipref>
              <mediatype>audio</mediatype>
              <trackindex>1</trackindex>
              <clipindex>29</clipindex>
              <groupindex>1</groupindex>
            </link>
          </clipitem>
          <clipitem id="clipitem-30">
            <name>overdub_ca7c1013-2ae7-4b8b-8b44-620d15f77f25.wav</name>
            <enabled>TRUE</enabled>
            <duration>123</duration>
            <start>2667</start>
            <end>2791</end>
            <in>0</in>
            <out>123</out>
            <file id="file-30">
              <name>overdub_ca7c1013-2ae7-4b8b-8b44-620d15f77f25.wav</name>
              <pathurl>overdub_ca7c1013-2ae7-4b8b-8b44-620d15f77f25.wav</pathurl>
              <duration>123</duration>
              <width>1280</width>
              <height>720</height>
              <rate>
                <timebase>30</timebase>
                <ntsc>FALSE</ntsc>
              </rate>
              <media>
                <audio>
                  <samplecharacteristics>
                    <depth>16</depth>
                    <samplerate>44100</samplerate>
                  </samplecharacteristics>
                  <channelcount>1</channelcount>
                </audio>
              </media>
            </file>
            <link>
              <linkclipref>clipitem-30</linkclipref>
              <mediatype>audio</mediatype>
              <trackindex>1</trackindex>
              <clipindex>30</clipindex>
              <groupindex>1</groupindex>
            </link>
          </clipitem>
        </track>
      </audio>
    </media>
  </sequence>
</xmeml>